<?xml version="1.0" encoding="utf-8"?>
<!-- Generator: Adobe Illustrator 21.1.0, SVG Export Plug-In . SVG Version: 6.00 Build 0)  -->
<svg version="1.1" id="图层_1" xmlns="http://www.w3.org/2000/svg" xmlns:xlink="http://www.w3.org/1999/xlink" x="0px" y="0px"
	 viewBox="0 0 24 24" style="enable-background:new 0 0 24 24;" xml:space="preserve">
<style type="text/css">
	.st0{fill:#4285F4;}
	.st1{fill:#EA4335;}
	.st2{fill:#FBBC05;}
	.st3{fill:#34A853;}
</style>
<path class="st0" d="M12,15c1.7,0,3-1.3,3-3V6c0-1.7-1.3-3-3-3S9,4.3,9,6v6C9,13.7,10.3,15,12,15z"/>
<path class="st1" d="M17.3,12c0,2.9-2.4,5.1-5.3,5.1c0,0,0,0,0,0c-2.9,0.1-5.2-2.2-5.3-5.1c0,0,0,0,0,0H5c0.1,3.4,2.6,6.2,6,6.7V22
	h2v-3.3c3.4-0.5,5.9-3.3,6-6.7H17.3z"/>
<path class="st2" d="M8.3,15.7c-1-0.9-1.6-2.3-1.6-3.7H5c0,1.8,0.8,3.6,2.2,4.9L8.3,15.7z"/>
<path class="st3" d="M12,18.8c-0.3,0-0.7,0-1-0.1V22h2v-3.3C12.7,18.8,12.3,18.8,12,18.8z"/>
</svg>
