<?xml version="1.0" encoding="utf-8"?>
<!-- Generator: Adobe Illustrator 21.1.0, SVG Export Plug-In . SVG Version: 6.00 Build 0)  -->
<svg version="1.1" id="图层_1" xmlns="http://www.w3.org/2000/svg" xmlns:xlink="http://www.w3.org/1999/xlink" x="0px" y="0px"
	 viewBox="0 0 61.2 20" style="enable-background:new 0 0 61.2 20;" xml:space="preserve">
<style type="text/css">
	.st0{fill:#4285F4;}
	.st1{fill:#EA4335;}
	.st2{fill:#FBBC05;}
	.st3{fill:#34A853;}
</style>
<path class="st0" d="M0.1,7.7C0.2,3.4,3.7,0,7.9,0c2,0,3.9,0.7,5.3,2.1l-1.5,1.5c-1-1-2.4-1.5-3.8-1.5c-3.1,0-5.5,2.5-5.5,5.5
	c0,0,0,0,0,0.1c0,3.1,2.4,5.6,5.4,5.6c0,0,0.1,0,0.1,0c1.5,0.1,2.9-0.5,3.9-1.5c0.7-0.7,1.1-1.7,1.1-2.7H8V7h7
	c0.1,0.4,0.1,0.9,0.1,1.3c0.1,1.8-0.6,3.6-1.8,4.9c-1.4,1.5-3.4,2.3-5.4,2.2C3.6,15.4,0.2,12,0.1,7.7z"/>
<path class="st1" d="M20.9,5.5c-2.7-0.1-4.9,2.1-5,4.8c0,0.1,0,0.1,0,0.2c0,2.8,2.2,5,5,5s5-2.2,5-5c0.1-2.7-2.1-4.9-4.8-5
	C21,5.5,20.9,5.5,20.9,5.5z M20.9,13.5c-1.6,0-2.8-1.4-2.8-3c0,0,0,0,0,0c-0.1-1.5,1.1-2.9,2.6-3c1.5-0.1,2.9,1.1,3,2.6
	c0,0.1,0,0.2,0,0.3C23.7,12.1,22.5,13.4,20.9,13.5C20.9,13.5,20.9,13.5,20.9,13.5L20.9,13.5z"/>
<path class="st2" d="M31.8,5.5c-2.7-0.1-4.9,2.1-5,4.8c0,0.1,0,0.1,0,0.2c0,2.8,2.2,5,5,5s5-2.2,5-5c0.1-2.7-2.1-4.9-4.8-5
	C31.9,5.5,31.8,5.5,31.8,5.5z M31.8,13.5c-1.6,0-2.8-1.4-2.8-3c0,0,0,0,0,0c-0.1-1.5,1.1-2.9,2.6-3s2.9,1.1,3,2.6c0,0.1,0,0.2,0,0.3
	C34.6,12.1,33.4,13.4,31.8,13.5C31.8,13.5,31.8,13.5,31.8,13.5L31.8,13.5z"/>
<path class="st0" d="M45.1,5.8v0.8H45c-0.7-0.7-1.6-1.1-2.6-1.1C39.6,5.8,37.7,8.3,38,11c0.3,2.3,2.1,4.2,4.4,4.4c1,0,2-0.4,2.6-1.1
	h0.1V15c0,1.9-1,2.9-2.7,2.9c-1.1,0-2-0.7-2.4-1.7L38.1,17c0.7,1.8,2.5,2.9,4.4,2.9c2.6,0,4.7-1.5,4.7-5.2V5.8H45.1z M42.6,13.5
	c-1.6,0-2.8-1.4-2.8-2.9c0,0,0-0.1,0-0.1c-0.1-1.6,1.2-2.9,2.7-3c0,0,0,0,0,0c1.5,0.1,2.7,1.4,2.7,2.9c0,0,0,0,0,0.1
	c0.1,1.5-1,2.9-2.5,3C42.7,13.5,42.7,13.5,42.6,13.5L42.6,13.5z"/>
<path class="st3" d="M48.7,0.5h2.2v14.6h-2.2V0.5z"/>
<path class="st1" d="M56.9,13.5c-1,0-2-0.5-2.4-1.5l6.7-2.8l-0.2-0.6c-0.6-1.8-2.3-3.1-4.3-3.2c-2.6,0-4.7,2.1-4.7,4.8
	c0,0.1,0,0.2,0,0.2c-0.1,2.7,2,4.9,4.7,5c0.1,0,0.1,0,0.2,0c1.7,0,3.2-0.9,4.1-2.3l-1.7-1.1C58.8,13,57.9,13.5,56.9,13.5z M56.7,7.4
	c0.8,0,1.5,0.4,1.8,1.1l-4.4,1.8C54,8.8,55.1,7.5,56.7,7.4C56.7,7.4,56.7,7.4,56.7,7.4z"/>
</svg>
