<svg xmlns="http://www.w3.org/2000/svg" viewBox="0 0 36 36">
<path fill="#03A9F4" d="M30.6,24.2l-2.9-1.7l2.2-1.3c0.4-0.3,0.6-0.8,0.4-1.3l0,0c-0.3-0.4-0.8-0.6-1.3-0.4l-3.2,1.8l-2-1.1
	c0.5-0.6,1-1.2,1.6-1.8c0.3-0.3,0.3-0.7,0-1c-0.6-0.5-1.1-1.1-1.6-1.8l2-1.1l3.2,1.8c0.4,0.4,1,0.4,1.4-0.1s0.4-1-0.1-1.4
	c-0.1-0.1-0.2-0.2-0.4-0.2l-2.2-1.3l2.9-1.7c0.4-0.4,0.4-1,0.1-1.4c-0.3-0.3-0.7-0.4-1.1-0.3l-2.9,1.7V9.3c-0.1-0.5-0.7-0.9-1.2-0.7
	c-0.4,0.1-0.6,0.4-0.7,0.7v3.6l-2,1.1c-0.3-0.7-0.6-1.5-0.8-2.3c-0.1-0.4-0.5-0.6-0.8-0.5c-0.8,0.2-1.5,0.4-2.3,0.5V9.5l3.2-1.8
	c0.4-0.4,0.4-1,0.1-1.4C21.9,6,21.5,5.9,21.1,6L19,7.3V4c0-0.6-0.4-1-1-1s-1,0.4-1,1v3.3L14.9,6c-0.5-0.2-1-0.1-1.3,0.3l0,0
	c-0.2,0.5-0.1,1,0.4,1.3L17,9.5v2.3c-0.8-0.1-1.6-0.2-2.3-0.5c-0.4-0.1-0.7,0.1-0.8,0.5c-0.2,0.8-0.4,1.5-0.8,2.3l-2-1.1V9.3
	c-0.1-0.5-0.7-0.9-1.2-0.7C9.5,8.7,9.2,9,9.1,9.3v2.5l-2.8-1.7c-0.5-0.2-1.1,0.1-1.3,0.6c-0.1,0.4,0,0.8,0.3,1.1l2.9,1.7l-2.1,1.2
	c-0.4,0.4-0.4,1,0,1.4c0.2,0.2,0.6,0.3,0.9,0.3l3.1-1.8l2,1.1c-0.5,0.6-1,1.2-1.6,1.8c-0.3,0.3-0.3,0.7,0,1c0.6,0.5,1.1,1.1,1.6,1.8
	l-2,1.1L7,19.6c-0.5-0.2-1,0-1.3,0.4l0,0c-0.2,0.5-0.1,1,0.3,1.3l2.2,1.3l-2.9,1.6c-0.4,0.4-0.4,1-0.1,1.4C5.6,25.9,6,26,6.4,25.9
	l2.8-1.7v2.5c-0.1,0.5,0.2,1.1,0.7,1.2c0.5,0.1,1.1-0.2,1.2-0.7c0-0.2,0-0.3,0-0.5v-3.6l2-1.1c0.3,0.7,0.6,1.5,0.8,2.3
	c0.1,0.4,0.5,0.6,0.8,0.5c0.7-0.2,1.5-0.4,2.3-0.5v2.3l-3.1,1.8c-0.4,0.4-0.4,1-0.1,1.4c0.3,0.3,0.7,0.4,1.1,0.3l2.1-1.3V32
	c0,0.6,0.4,1,1,1s1-0.4,1-1v-3.3l2.1,1.3c0.5,0.2,1,0.1,1.3-0.4l0,0c0.2-0.5,0.1-1-0.4-1.3L19,26.5v-2.3c0.8,0.1,1.6,0.2,2.3,0.5
	c0.4,0.1,0.7-0.1,0.8-0.5c0.2-0.8,0.4-1.5,0.8-2.3l2,1.1v3.6c0.1,0.5,0.7,0.9,1.2,0.7c0.4-0.1,0.6-0.4,0.7-0.7v-2.5l2.9,1.7
	c0.5,0.2,1.1-0.1,1.3-0.6c0.1-0.4,0-0.8-0.3-1.1H30.6z M22.9,18.1c-0.3,0.3-0.6,0.7-0.9,1l-2-1.1l1.9-1.1
	C22.2,17.3,22.5,17.7,22.9,18.1z M20.4,13.8c0.1,0.5,0.3,1,0.5,1.5L19,16.3V14C19.5,13.9,19.9,13.9,20.4,13.8L20.4,13.8z M15.4,13.8
	c0.6,0.1,1.1,0.2,1.7,0.3v2.3l-2.2-1.3C15.1,14.6,15.2,14.2,15.4,13.8L15.4,13.8z M12.8,18.1c0.4-0.4,0.8-0.9,1.1-1.3l2.1,1.2
	l-2.2,1.3C13.5,18.9,13.2,18.5,12.8,18.1z M15.3,22.5c-0.1-0.5-0.3-1-0.5-1.5l2.2-1.3v2.5C16.4,22.2,15.9,22.3,15.3,22.5z
	 M20.3,22.5c-0.5-0.1-1-0.2-1.4-0.3v-2.5l2,1.1C20.7,21.3,20.5,21.9,20.3,22.5L20.3,22.5z"/>
</svg>
